<svg xmlns="http://www.w3.org/2000/svg" viewBox="0 0 361.69 114.65"><defs><style>.a{opacity:0.9;}.b{fill:#009640;}.c{fill:#878787;}.d{opacity:0.8;}.e{fill:#009fe3;}.f{opacity:0.6;}.g{opacity:0.7;}.h{fill:#be1622;}.i{opacity:0.3;}.j{fill:#1d1d1b;}.k{fill:#ffed00;}.l{opacity:0.5;}.m{fill:#312783;}.n{opacity:0.65;}</style></defs><title>Discussion_Forum_LOGO_CMYK</title><g class="a"><path class="b" d="M110.4,96h12.18v13.27c0,9.57-4,14.68-12.4,15.23v-6.09c4.57-1,5.87-2.83,5.87-7.4v-1.74H110.4V96Z" transform="translate(-44.62 -39.78)"/></g><path class="c" d="M166.28,52.29H165.4v-5h10v5h-0.87V48.21H171V59.65h2v0.87h-5.11V59.65h2V48.21h-3.59v4.08Z" transform="translate(-44.62 -39.78)"/><path class="c" d="M176.54,59.65h1.37V48.21h-1.37V47.34H179v5.22a5.65,5.65,0,0,1,3.21-1.33c1.9,0,2.34,1.06,2.34,3.32v5.09h1.27v0.87h-3.65V59.65h1.33v-5c0-1.75-.15-2.53-1.42-2.53A5,5,0,0,0,179,53.57v6.08h1.37v0.87h-3.8V59.65Z" transform="translate(-44.62 -39.78)"/><path class="c" d="M191.28,59.82a3.25,3.25,0,0,0,3.21-2.11l0.85,0.36a4.27,4.27,0,0,1-4.16,2.72c-2.72,0-4.45-1.84-4.45-4.88S188.51,51,191,51s4.24,1.84,4.24,4.77v0.29h-7.41C187.86,58.49,189.12,59.82,191.28,59.82Zm2.83-4.62a3.14,3.14,0,1,0-6.27,0h6.27Z" transform="translate(-44.62 -39.78)"/><path class="c" d="M165.24,103.45V98.86h4.33V72.4h-4.33V68.06h16.37c11.17,0,17.49,6.58,17.49,17.7s-6.32,17.7-17.49,17.7H165.24Zm15.91-4.64c8.16,0,12.34-4.54,12.34-13.21,0-8.41-4.18-13.21-11.68-13.21h-7.19V98.81h6.53Z" transform="translate(-44.62 -39.78)"/><path class="c" d="M213.48,99.07v4.39H201.81V99.07h3.52V82.7h-3.52V78.57h8v20.5h3.67Zm-6.27-31a3,3,0,0,1,3,2.91,2.93,2.93,0,0,1-3,3,2.85,2.85,0,0,1-2.91-3A2.91,2.91,0,0,1,207.21,68.06Z" transform="translate(-44.62 -39.78)"/><path class="c" d="M216.29,95h4c0.36,3.26,2.8,5.2,6.48,5.2,3,0,4.84-1.53,4.84-3.42s-1.53-2.7-4.54-3.42l-3.82-.87c-4.79-1.12-7-3.26-7-7.14,0-4.13,3.62-7.45,8.67-7.45a9.56,9.56,0,0,1,6.63,2.5V78.57h3.82v8.11h-3.82c-0.25-3-2.75-4.95-6.37-4.95-2.65,0-4.28,1.27-4.28,3.21s1.38,2.65,4,3.21L229.09,89c4.74,1,7,3.31,7,7.09,0,4.74-3.52,8.06-9.13,8.06a9.8,9.8,0,0,1-6.73-2.4v1.68h-4V95Z" transform="translate(-44.62 -39.78)"/><path class="c" d="M252.34,82.29c-4.74,0-7.7,3.26-7.7,8.72s3.06,8.57,7.65,8.57a8.72,8.72,0,0,0,7.85-5l3.93,1.94a12.33,12.33,0,0,1-11.78,7.65c-7.45,0-12.7-5.15-12.7-13.11,0-7.8,5.2-13.11,12-13.11a10.45,10.45,0,0,1,7.34,2.8V78.57h4v9.28h-4C258.06,84.18,255.71,82.29,252.34,82.29Z" transform="translate(-44.62 -39.78)"/><path class="c" d="M288.35,99.07h3.57v4.39h-7.85v-3.16c-3.11,2.55-5.71,3.88-8.57,3.88-5.25,0-6-3.37-6-8.92V82.7h-3.67V78.57H274V94c0,4.08.25,6.17,3.21,6.17,2.24,0,4.33-1.27,6.73-3.82V82.7h-3.82V78.57h8.26v20.5Z" transform="translate(-44.62 -39.78)"/><path class="c" d="M294.83,95h4c0.36,3.26,2.8,5.2,6.48,5.2,3,0,4.84-1.53,4.84-3.42s-1.53-2.7-4.54-3.42l-3.83-.87c-4.79-1.12-7-3.26-7-7.14,0-4.13,3.62-7.45,8.67-7.45a9.55,9.55,0,0,1,6.63,2.5V78.57h3.83v8.11H310c-0.25-3-2.75-4.95-6.37-4.95-2.65,0-4.28,1.27-4.28,3.21s1.38,2.65,4,3.21L307.63,89c4.74,1,7,3.31,7,7.09,0,4.74-3.52,8.06-9.13,8.06a9.8,9.8,0,0,1-6.73-2.4v1.68h-4V95Z" transform="translate(-44.62 -39.78)"/><path class="c" d="M318.59,95h4c0.36,3.26,2.8,5.2,6.48,5.2,3,0,4.84-1.53,4.84-3.42s-1.53-2.7-4.54-3.42l-3.83-.87c-4.79-1.12-7-3.26-7-7.14,0-4.13,3.62-7.45,8.67-7.45a9.55,9.55,0,0,1,6.63,2.5V78.57h3.83v8.11h-3.83c-0.25-3-2.75-4.95-6.37-4.95-2.65,0-4.28,1.27-4.28,3.21s1.38,2.65,4,3.21L331.39,89c4.74,1,7,3.31,7,7.09,0,4.74-3.52,8.06-9.13,8.06a9.8,9.8,0,0,1-6.73-2.4v1.68h-4V95Z" transform="translate(-44.62 -39.78)"/><path class="c" d="M352.92,99.07v4.39H341.24V99.07h3.52V82.7h-3.52V78.57h8v20.5h3.67Zm-6.27-31a3,3,0,0,1,3,2.91,2.93,2.93,0,0,1-3,3,2.85,2.85,0,0,1-2.91-3A2.91,2.91,0,0,1,346.64,68.06Z" transform="translate(-44.62 -39.78)"/><path class="c" d="M366.43,104.17c-7.29,0-12.44-5.1-12.44-13.11S359.14,78,366.43,78s12.49,5.15,12.49,13.11S373.72,104.17,366.43,104.17ZM373.93,91c0-5.46-2.86-8.57-7.5-8.57s-7.5,3.11-7.5,8.57,3,8.57,7.5,8.57S373.93,96.52,373.93,91Z" transform="translate(-44.62 -39.78)"/><path class="c" d="M383.77,82.7h-3.52V78.57h7.8v3.82c3.11-2.55,5.76-3.88,8.62-3.88,5.25,0,6,3.37,6,8.92V99.07h3.67v4.39h-8.16V89.28c0-4.44-.1-6.73-3.16-6.73-2.24,0-4.33,1.27-6.73,3.82v12.7h3.67v4.39H380.25V99.07h3.52V82.7Z" transform="translate(-44.62 -39.78)"/><path class="c" d="M164.49,141.21h4.18V114.75h-4.18v-4.33h26.87v10.51h-4.23v-6.17H173.72v10.76h11.83v4.23H173.72v11.47h4.64v4.59H164.49v-4.59Z" transform="translate(-44.62 -39.78)"/><path class="c" d="M201.15,146.52c-7.29,0-12.44-5.1-12.44-13.11s5.15-13.11,12.44-13.11,12.49,5.15,12.49,13.11S208.45,146.52,201.15,146.52Zm7.5-13.16c0-5.46-2.86-8.57-7.5-8.57s-7.5,3.11-7.5,8.57,3,8.57,7.5,8.57S208.65,138.87,208.65,133.36Z" transform="translate(-44.62 -39.78)"/><path class="c" d="M218.7,125h-3.52v-4.13H223v4.9c1.73-3.82,4-5.35,7.9-5.35,0.2,0,.87,0,1.89.05v4.79c-0.66-.05-1.27-0.1-1.89-0.1-5.61,0-7.7,3.26-7.7,9.64v6.58h4.44v4.39H215.18v-4.39h3.52V125Z" transform="translate(-44.62 -39.78)"/><path class="c" d="M256.95,141.42h3.57v4.39h-7.85v-3.16c-3.11,2.55-5.71,3.88-8.57,3.88-5.25,0-6-3.37-6-8.92V125h-3.67v-4.13h8.16v15.4c0,4.08.25,6.17,3.21,6.17,2.24,0,4.33-1.27,6.73-3.82V125h-3.82v-4.13h8.26v20.5Z" transform="translate(-44.62 -39.78)"/><path class="c" d="M280,120.92c3,0,4.95,1.33,5.71,4,3.11-2.65,5.86-4,8.77-4,5.15,0,6,3.26,6,8.87v11.63h3.62v4.39h-8.26V129.33c0-3-1-4.44-3.11-4.44s-4.33,1.27-6.68,3.82v12.7h3.62v4.39h-8.26V129.38c0-3.06-1-4.49-3.16-4.49s-4.28,1.27-6.63,3.82v12.7h3.62v4.39H263.48v-4.39h3.62V125h-3.62v-4.13h8v3.82C274.59,122.19,277.19,120.92,280,120.92Z" transform="translate(-44.62 -39.78)"/><g class="d"><path class="e" d="M121.13,63.88h15.39V80.64c0,12.09-5.08,18.55-15.66,19.24V92.18c5.77-1.24,7.42-3.57,7.42-9.34v-2.2h-7.14V63.88Z" transform="translate(-44.62 -39.78)"/></g><g class="f"><path class="b" d="M100.26,50.43h18.89V71c0,14.84-6.24,22.77-19.23,23.61V85.18C107,83.66,109,80.79,109,73.71V71h-8.77V50.43Z" transform="translate(-44.62 -39.78)"/></g><g class="g"><path class="h" d="M102.45,119.15H116v14.77c0,10.66-4.48,16.34-13.8,17v-6.78c5.08-1.09,6.54-3.15,6.54-8.23v-1.94h-6.3V119.15Z" transform="translate(-44.62 -39.78)"/></g><g class="i"><path class="j" d="M112.19,41.44h12.18V54.71c0,9.57-4,14.68-12.4,15.23V63.85c4.57-1,5.87-2.83,5.87-7.4V54.71h-5.66V41.44Z" transform="translate(-44.62 -39.78)"/></g><g class="f"><path class="e" d="M62.42,93.49H76.74v15.59c0,11.25-4.73,17.25-14.57,17.89v-7.16c5.37-1.15,6.9-3.32,6.9-8.69v-2H62.42V93.49Z" transform="translate(-44.62 -39.78)"/></g><g class="f"><path class="b" d="M89.73,113.39H72.22V132.5c0,13.78,5.79,21.15,17.83,21.93v-8.77c-6.57-1.41-8.44-4.07-8.44-10.65v-2.5h8.13V113.39Z" transform="translate(-44.62 -39.78)"/></g><g class="i"><path class="j" d="M57.69,102.53H44.62V116.8c0,10.29,4.32,15.78,13.3,16.37v-6.55c-4.9-1.05-6.3-3-6.3-7.95V116.8h6.07V102.53Z" transform="translate(-44.62 -39.78)"/></g><path class="k" d="M133.41,109.77H119.52v15.15c0,10.93,4.59,16.77,14.14,17.39v-7c-5.21-1.12-6.7-3.23-6.7-8.45v-2h6.45V109.77Z" transform="translate(-44.62 -39.78)"/><g class="l"><path class="h" d="M98,39.78H88.67V50c0,7.34,3.08,11.25,9.49,11.67V57c-3.5-.75-4.49-2.17-4.49-5.67V50H98V39.78Z" transform="translate(-44.62 -39.78)"/></g><g class="a"><path class="m" d="M61.65,60H48.29V74.59c0,10.52,4.41,16.14,13.6,16.73V84.63c-5-1.08-6.44-3.11-6.44-8.13V74.59h6.2V60Z" transform="translate(-44.62 -39.78)"/></g><g class="l"><path class="m" d="M90.13,94.75h-10v11c0,7.9,3.32,12.12,10.22,12.57v-5c-3.76-.81-4.84-2.33-4.84-6.1V105.7h4.66v-11Z" transform="translate(-44.62 -39.78)"/></g><g class="f"><path class="k" d="M74.17,70.81H58.33V88.09c0,12.46,5.23,19.12,16.12,19.83V100c-5.94-1.27-7.63-3.68-7.63-9.63V88.09h7.35V70.81Z" transform="translate(-44.62 -39.78)"/></g><g class="d"><path class="h" d="M94.46,64.67H83.38V76.76c0,8.72,3.66,13.38,11.28,13.87V85.08c-4.15-.89-5.34-2.58-5.34-6.74V76.76h5.14V64.67Z" transform="translate(-44.62 -39.78)"/></g><g class="n"><path class="b" d="M69.72,46.34H81.91V59.61c0,9.57-4,14.68-12.4,15.23V68.75c4.57-1,5.87-2.83,5.87-7.4V59.61H69.72V46.34Z" transform="translate(-44.62 -39.78)"/></g><g class="i"><path class="j" d="M131.75,86.74h15.14v16.49c0,11.9-5,18.25-15.41,18.92v-7.57c5.68-1.22,7.3-3.52,7.3-9.19v-2.16h-7V86.74Z" transform="translate(-44.62 -39.78)"/></g><g class="l"><path class="k" d="M87,87.79h19.35v21.07c0,15.2-6.39,23.32-19.69,24.18v-9.67c7.25-1.56,9.33-4.5,9.33-11.75v-2.76H87V87.79Z" transform="translate(-44.62 -39.78)"/></g></svg>
